<svg xmlns="http://www.w3.org/2000/svg" height="48" viewBox="0 -960 960 960" width="48"><path d="m370-320 110-110 110 110 42-42-110-110 110-110-42-42-110 110-110-110-42 42 110 110-110 110 42 42ZM244-580l56-56 56 56 24-24-56-56 56-56-24-24-56 56-56-56-24 24 56 56-56 56 24 24Zm0 340 56-56 56 56 24-24-56-56 56-56-24-24-56 56-56-56-24 24 56 56-56 56 24 24Zm436-340 56-56 56 56 24-24-56-56 56-56-24-24-56 56-56-56-24 24 56 56-56 56 24 24Zm0 340 56-56 56 56 24-24-56-56 56-56-24-24-56 56-56-56-24 24 56 56-56 56 24 24Z"/></svg>
