<svg xmlns="http://www.w3.org/2000/svg" height="48" viewBox="0 -960 960 960" width="48"><path d="M200-120q-33 0-56.5-23.5T120-200v-160q0-33 23.5-56.5T200-440h160q33 0 56.5 23.5T440-360v160q0 33-23.5 56.5T360-120H200Zm0-480q-33 0-56.5-23.5T120-680v-80q0-33 23.5-56.5T200-840h160q33 0 56.5 23.5T440-760v80q0 33-23.5 56.5T360-600H200Zm0 420h160v-160H200v160Zm480-420q-33 0-56.5-23.5T600-680v-80q0-33 23.5-56.5T680-840h80q33 0 56.5 23.5T840-760v80q0 33-23.5 56.5T760-600h-80Zm0 60q58 0 99-41t41-99v-80q0-58-41-99t-99-41h-80q-58 0-99 41t-41 99v80q0 17 3.5 33t10.5 31v416h60v-416q7-15 10.5-31t3.5-33h132q17 0 33-3.5t31-10.5v464h60v-464q15-7 31-10.5t33-3.5Z"/></svg>
