<svg xmlns="http://www.w3.org/2000/svg" height="48" viewBox="0 -960 960 960" width="48"><path d="M200-120v-680q-33 0-56.5-23.5T120-880q0-33 23.5-56.5T200-960q33 0 56.5 23.5T280-880q0 26-14 46.5T234-803v323q45-23 93.5-34.5T430-526q56 0 107 16t97 50v-210q-18-11-28.5-28.5T595-740q0-33 23.5-56.5T675-820q33 0 56.5 23.5T755-740q0 24-13.5 43T710-670v250q0 51-35 86t-86 35q-25 0-47.5-9.5T500-336q-29-19-63.5-29.5T366-376q-42 0-81.5 13T214-323v143q18 11 32 30t14 47q0 33-23.5 56.5T180-23q-33 0-56.5-23.5T100-103q0-27 14-47.5t40-31.5Z"/></svg>
